<svg xmlns="http://www.w3.org/2000/svg" viewBox="0 0 99.62 99.62"><defs><style>.cls-1{fill:#3cb4e5;}.cls-2{fill:#fff;}</style></defs><g id="Layer_2" data-name="Layer 2"><g id="Layer_1-2" data-name="Layer 1"><rect class="cls-1" width="99.62" height="99.62" rx="14.69"/><path class="cls-2" d="M68.56,75.37c0,2.65-1.9,4.56-5,4.56H61.82v5H59.06V70.81H63.6C66.66,70.81,68.56,72.69,68.56,75.37Zm-6.74-2v3.93H63.6a2,2,0,1,0,0-3.93Z"/><path class="cls-2" d="M77.37,79.69v5.24h-2.8V79.69l-5.35-8.88h3.23l3,4.93.49.94.5-.94,3-4.93h3.23Z"/><polygon class="cls-2" points="30.69 37.3 11.57 37.3 30.69 9.75 30.69 37.3"/><polygon class="cls-2" points="30.69 37.3 30.69 64.84 49.81 37.3 30.69 37.3"/></g></g></svg>